inDegrees=no
num_controls=7
num_derivatives=13
num_iterations=118
num_multipliers=7
num_parameters=0
num_slacks=7
num_states=26
objective=5.427953
objective_accelerations=0.552254
objective_balance=0.080273
objective_effort=0.442791
objective_height=4.249962
objective_ligament=0.102674
solver_duration=1411.909674
status=Solve_Succeeded
success=true
DataType=double
version=3
OpenSimVersion=4.4-2022-07-23-0e9fedc
endheader
time	/jointset/ground_pelvis/pelvis_tilt/value	/jointset/ground_pelvis/pelvis_tx/value	/jointset/ground_pelvis/pelvis_ty/value	/jointset/hip_l/hip_flexion_l/value	/jointset/hip_l/hip_adduction_l/value	/jointset/hip_l/hip_rotation_l/value	/jointset/back/lumbar_extension/value	/jointset/patellofemoral_l/patellar_flexion_l/value	/jointset/knee_l/knee_flexion_l/value	/jointset/knee_l/knee_adduction_l/value	/jointset/knee_l/knee_rotation_l/value	/jointset/ankle_l/ankle_angle_l/value	/jointset/subtalar_l/subtalar_angle_l/value	/jointset/ground_pelvis/pelvis_tilt/speed	/jointset/ground_pelvis/pelvis_tx/speed	/jointset/ground_pelvis/pelvis_ty/speed	/jointset/hip_l/hip_flexion_l/speed	/jointset/hip_l/hip_adduction_l/speed	/jointset/hip_l/hip_rotation_l/speed	/jointset/back/lumbar_extension/speed	/jointset/patellofemoral_l/patellar_flexion_l/speed	/jointset/knee_l/knee_flexion_l/speed	/jointset/knee_l/knee_adduction_l/speed	/jointset/knee_l/knee_rotation_l/speed	/jointset/ankle_l/ankle_angle_l/speed	/jointset/subtalar_l/subtalar_angle_l/speed	/forceset/tau_hip_flexion_l	/forceset/tau_hip_adduction_l	/forceset/tau_hip_rotation_l	/forceset/tau_knee_flexion_l	/forceset/tau_ankle_angle_l	/forceset/tau_subtalar_angle_l	/forceset/tau_lumbar_extension	lambda_cid13_p0	lambda_cid13_p1	lambda_cid13_p2	lambda_cid13_p3	lambda_cid13_p4	lambda_cid13_p5	lambda_cid14_p0	/jointset/ground_pelvis/pelvis_tilt/accel	/jointset/ground_pelvis/pelvis_tx/accel	/jointset/ground_pelvis/pelvis_ty/accel	/jointset/hip_l/hip_flexion_l/accel	/jointset/hip_l/hip_adduction_l/accel	/jointset/hip_l/hip_rotation_l/accel	/jointset/back/lumbar_extension/accel	/jointset/patellofemoral_l/patellar_flexion_l/accel	/jointset/knee_l/knee_flexion_l/accel	/jointset/knee_l/knee_adduction_l/accel	/jointset/knee_l/knee_rotation_l/accel	/jointset/ankle_l/ankle_angle_l/accel	/jointset/subtalar_l/subtalar_angle_l/accel	gamma_cid13_p0	gamma_cid13_p1	gamma_cid13_p2	gamma_cid13_p3	gamma_cid13_p4	gamma_cid13_p5	gamma_cid14_p0
1.5	-0.4621918174805914	-0.08200336224423027	0.7695235308617211	1.251790577471772	-0.3033929768900686	-0.06594062148363009	-0.3396507358261822	0.6266295845464718	0.6266295845467122	-0.1639653549891326	0.1664873249469445	0.0006602400295720002	-0.04927556261537126	0.7847812878644183	0.2872173662296381	0.4590908502716644	-2.295619648348938	0.05068299706425355	-0.5227016751850998	0.5667314266498509	-1.584131621018574	-1.584131621018511	0.003303116843237673	-0.01308243197745407	-0.1443136632306595	0.03883209363851831	-0.2542311173322274	0.02057115070874337	-0.01958560977756294	-0.1871313528296938	0.152816381752509	0.04095795176313812	0.2262692261450822	10.02714156078037	-21.89907907408742	5.779281723871064	-5.43924643066284	-610.3734484555429	-58.07386400559369	-31.60234273056941	0.6028627636896529	0.6593283629103713	-0.2603395120350678	-1.489082497063408	0.4028488568088811	-0.2310392988315664	1.631605958505879	-0.9562007999069103	-0.9562007999069356	-0.09065631164169725	0.01373365241794913	-0.02663634741797131	0.3890942213915758	1.053402590724611e-07	6.736710864868633e-07	-6.602089088852647e-07	4.159566202961662e-08	2.124644712602978e-07	-4.216367441423986e-08	1.803255127974309e-07
1.51	-0.4543143010655677	-0.07909843357660191	0.7741005663634215	1.228762078983424	-0.3028668786843144	-0.07117931153954186	-0.3339031289682163	0.6107426448527482	0.6107426448531562	-0.1639382542740456	0.1663585468864968	-0.0007840486911570221	-0.04886867216780322	0.7906145293350634	0.2937387114530207	0.4562274150391451	-2.309772834410353	0.05453617080691411	-0.5249588930744526	0.5827255048502007	-1.593033431423064	-1.593033431422666	0.002101356631167577	-0.01268129002391283	-0.1445044742003626	0.04254857928894078	-0.2460884133137815	0.01978296728676567	-0.01949803280233671	-0.186184039570765	0.1526305569774846	0.04015831130093941	0.2200553258188414	10.18952870418328	-21.68283819441654	5.862012489595712	-5.428367428837985	-606.2256498769946	-58.31308156941197	-32.42151121218038	0.5574446670211723	0.6441142864485605	-0.312636156547042	-1.33234208040665	0.3763899560044361	-0.2112952120570989	1.573642739285831	-0.8237659918021836	-0.8237659917523337	-0.137139249830713	0.05218782636314617	-0.00935721026308445	0.3632031524205745	4.585663539865989e-08	8.152656933221816e-07	-3.887679494114895e-07	9.686465958701111e-08	1.865116773111714e-07	-4.884544515383596e-09	1.529715924532765e-07
1.52	-0.4463816742701364	-0.07612917611986242	0.7786463093872581	1.2056012675505	-0.3023022810764862	-0.07643822021017277	-0.3279975145305453	0.59477336808892	0.5947733680892355	-0.1639236118360484	0.1662335569171136	-0.00222905626929553	-0.04842456138062185	0.7958033639364821	0.3000831240518596	0.4528323546989159	-2.322082237260852	0.05838287747008217	-0.5267453980865914	0.5983329425900323	-1.60059903507079	-1.600599035070057	0.0008114614654604412	-0.0123248136886848	-0.1444574347107252	0.0462761615614643	-0.2379457092958134	0.01899478386424845	-0.01941045582912505	-0.1852367263117408	0.152444732202305	0.03935867083818779	0.2138414254923207	10.34327916219637	-21.46713730114417	5.947173468679031	-5.395026828433463	-602.2054949527461	-58.59941447703573	-33.21694522846242	0.473981389846925	0.6239418379993303	-0.366664533577683	-1.120325854879117	0.4015554409107144	-0.1368967233884837	1.554277866402985	-0.688959448553515	-0.688959448553501	-0.1082833023685887	0.004800528754774737	0.02093374444711166	0.3913135458114009	1.320344082339265e-08	9.10181136572302e-07	-2.474258226173149e-07	1.279089633959026e-07	1.776079540739434e-07	2.182542443400582e-08	1.400476474759139e-07
1.53	-0.4384003943875474	-0.07309743807930458	0.7831554806434007	1.182326626438042	-0.3016992994641815	-0.08171283567019605	-0.3219379675286647	0.5787351619945924	0.5787351619948092	-0.1639222654113262	0.1661120561793104	-0.003672433297423286	-0.04794317148139517	0.8003389725252413	0.3062261314060177	0.4489159822612753	-2.332523766875052	0.06221049856839143	-0.5281057047950021	0.6134951258026636	-1.606811321560185	-1.606811321559694	-0.0005503602776649642	-0.01197976292773153	-0.1441799537579345	0.05000178202169556	-0.2296948259453406	0.0180579590596314	-0.0193525588251661	-0.1842855365318335	0.152261850291971	0.03845250752298476	0.2074877821350281	10.49525789915833	-21.20688771056775	6.027544495711595	-5.321330691431201	-598.1574988055097	-58.82186453447812	-33.98515169586663	0.4263129909975134	0.6037544901470423	-0.4169723908746484	-0.9577224743151435	0.3728177654250762	-0.1246413014040989	1.484988753711245	-0.5527626652787717	-0.5527626653148592	-0.151197535258958	0.04879648458571962	0.03686319176253355	0.3630557884921556	9.057577165317473e-09	9.554999685131498e-07	-2.443137055452143e-07	1.3321453009701e-07	1.868188684681071e-07	3.730565987458683e-08	1.424555513257674e-07
1.54	-0.430377165939581	-0.0700054151040012	0.7876229184167606	1.15895723883749	-0.3010581511766177	-0.08699886292875222	-0.3157292386536546	0.5626417531524462	0.562641753152011	-0.1639347503896005	0.1659938937753639	-0.005111893931809454	-0.04742455147909588	0.8041930770183343	0.3121401110009669	0.4444856581423676	-2.341031534874264	0.06601621251209011	-0.5290277577768264	0.628169317216037	-1.611639584695413	-1.611639584695165	-0.001954819019701778	-0.01165714677389415	-0.143674155962461	0.05372218217644932	-0.2214439425949353	0.01712113425488229	-0.01929466182625626	-0.1833343467513356	0.152078968381603	0.03754634420765734	0.2011341387777395	10.63829493691529	-20.9469195348149	6.110070173660526	-5.22197219253265	-594.239820530924	-59.09206669787055	-34.72273387194804	0.3376805707157964	0.5781362861551004	-0.4694548698317413	-0.7335735318805672	0.3971740099892327	-0.04924597807095429	1.456679506551894	-0.4121547777193681	-0.4121547777193685	-0.1168107021503432	0.0003136073312127383	0.06659711298054569	0.3902694847154453	4.251609535577073e-09	9.969087988579072e-07	-2.391235408708517e-07	1.382611102873152e-07	1.94704908246844e-07	5.291160712175458e-08	1.440047436148654e-07
1.55	-0.4223188171976887	-0.06685546004293828	0.7920435361377657	1.135512461075695	-0.3003790932707115	-0.09229208902193226	-0.3093763335502832	0.5465070188771067	0.5465070188768815	-0.1639614484100277	0.1658789706358657	-0.006545158809107035	-0.04686878701114371	0.8073584640757543	0.3178057566718656	0.4395566921009105	-2.347591995297242	0.06978891522071251	-0.5295494057712373	0.642320233695526	-1.615069716471044	-1.615069716470588	-0.003388483083563647	-0.01132821370687264	-0.1429403594713759	0.05742753553989309	-0.2131849574481818	0.01604126965464953	-0.01927110558568941	-0.1823889304721842	0.1519545512413451	0.03654058088431536	0.1947370297735089	10.79183249180849	-20.64733159269792	6.188333042813604	-5.11342667168982	-590.4016529646804	-59.30506838519157	-35.42627638410332	0.2882432416481385	0.5540361487539717	-0.516755647257354	-0.5674694118990535	0.3662307011380366	-0.04325562731780393	1.380577256815246	-0.272838266865954	-0.2728382668336582	-0.1570253372259162	0.04917775184210985	0.08254501262464288	0.3600534941593186	-1.314912670212349e-09	1.033812627363691e-06	-2.315391039591005e-07	1.430092929760441e-07	2.010644620556326e-07	6.866239623303311e-08	1.445645508448319e-07
1.56	-0.4142323594916483	-0.06365019703692519	0.79641243656316	1.112012041286737	-0.2996625258777001	-0.09758845787859401	-0.3028846633744961	0.5303451041062794	0.5303451041060138	-0.1640025592870815	0.1657673357457753	-0.007969930902410868	-0.04627609196316031	0.8098148698691268	0.3232016999910015	0.4341421990202134	-2.352159940295821	0.07351810992298166	-0.5296563104533303	0.6559223317017413	-1.617075683821944	-1.617075683821282	-0.004837390296259288	-0.01099949682163571	-0.1419755991622523	0.0611082981833525	-0.2049259723014543	0.01496140505420184	-0.01924754934732635	-0.181443514192945	0.1518301341009319	0.03553481756073943	0.1883399207693906	10.93611969893435	-20.34767014188245	6.268350316087009	-4.976365941648841	-586.6968527235545	-59.56557646645239	-36.09252852747731	0.1958843179074886	0.5241958157999502	-0.5665602776803799	-0.3350704470001602	0.3884724087190976	0.03370268439288805	1.346915811897274	-0.1273218927723883	-0.1273218927723858	-0.1198593319165112	0.0002703709739933936	0.1127898765850376	0.3853513407180909	-1.760511459436897e-09	1.064352706576162e-06	-2.393218845635758e-07	1.411529731845039e-07	2.156972478471159e-07	8.338945924587064e-08	1.466703647987323e-07
